<svg width="151" height="48" viewBox="0 0 151 48" fill="none" xmlns="http://www.w3.org/2000/svg">
                    <g clip-path="url(#clip0_146_250)">
                        <path d="M79.8998 12.3088C79.8998 14.0025 78.5409 15.3669 76.8539 15.3669C75.167 15.3669 73.808 14.0025 73.808 12.3088C73.808 10.6151 75.1201 9.25075 76.8539 9.25075C78.5878 9.2978 79.8998 10.6622 79.8998 12.3088ZM67.3413 18.472C67.3413 18.7543 67.3413 19.2247 67.3413 19.2247C67.3413 19.2247 65.8886 17.3428 62.7958 17.3428C57.688 17.3428 53.7049 21.2477 53.7049 26.6582C53.7049 32.0215 57.6412 35.9735 62.7958 35.9735C65.9355 35.9735 67.3413 34.0445 67.3413 34.0445V34.8443C67.3413 35.2207 67.6224 35.503 67.9973 35.503H71.793V17.8133C71.793 17.8133 68.3253 17.8133 67.9973 17.8133C67.6224 17.8133 67.3413 18.1426 67.3413 18.472ZM67.3413 29.8103C66.6384 30.8453 65.2326 31.7392 63.5456 31.7392C60.5465 31.7392 58.2504 29.8574 58.2504 26.6582C58.2504 23.459 60.5465 21.5771 63.5456 21.5771C65.1857 21.5771 66.6852 22.518 67.3413 23.506V29.8103ZM74.6046 17.8133H79.1032V35.503H74.6046V17.8133ZM141.802 17.3428C138.71 17.3428 137.257 19.2247 137.257 19.2247V9.2978H132.758V35.503C132.758 35.503 136.226 35.503 136.554 35.503C136.929 35.503 137.21 35.1737 137.21 34.8443V34.0445C137.21 34.0445 138.663 35.9735 141.756 35.9735C146.863 35.9735 150.846 32.0215 150.846 26.6582C150.846 21.2948 146.863 17.3428 141.802 17.3428ZM141.053 31.6922C139.319 31.6922 137.96 30.7983 137.257 29.7633V23.459C137.96 22.518 139.459 21.53 141.053 21.53C144.052 21.53 146.348 23.4119 146.348 26.6111C146.348 29.8103 144.052 31.6922 141.053 31.6922ZM130.415 25.0115V35.55H125.917V25.529C125.917 22.6121 124.98 21.4359 122.449 21.4359C121.09 21.4359 119.684 22.1416 118.794 23.1767V35.503H114.295V17.8133H117.857C118.232 17.8133 118.513 18.1426 118.513 18.472V19.2247C119.825 17.8604 121.559 17.3428 123.293 17.3428C125.261 17.3428 126.901 17.9074 128.213 19.0365C129.806 20.3539 130.415 22.0475 130.415 25.0115ZM103.377 17.3428C100.284 17.3428 98.8314 19.2247 98.8314 19.2247V9.2978H94.3328V35.503C94.3328 35.503 97.8005 35.503 98.1285 35.503C98.5034 35.503 98.7846 35.1737 98.7846 34.8443V34.0445C98.7846 34.0445 100.237 35.9735 103.33 35.9735C108.438 35.9735 112.421 32.0215 112.421 26.6582C112.468 21.2948 108.485 17.3428 103.377 17.3428ZM102.627 31.6922C100.893 31.6922 99.5343 30.7983 98.8314 29.7633V23.459C99.5343 22.518 101.034 21.53 102.627 21.53C105.626 21.53 107.922 23.4119 107.922 26.6111C107.922 29.8103 105.626 31.6922 102.627 31.6922ZM90.4434 17.3428C91.8024 17.3428 92.5053 17.5781 92.5053 17.5781V21.7653C92.5053 21.7653 88.7565 20.495 86.4134 23.1767V35.55H81.9148V17.8133C81.9148 17.8133 85.3825 17.8133 85.7105 17.8133C86.0854 17.8133 86.3666 18.1426 86.3666 18.472V19.2247C87.2101 18.2367 89.0376 17.3428 90.4434 17.3428ZM43.7237 33.9034C43.4894 33.3388 43.2551 32.7272 43.0208 32.2097C42.6459 31.3629 42.271 30.5631 41.943 29.8103L41.8961 29.7633C38.6627 22.7062 35.1951 15.5551 31.54 8.498L31.3994 8.21572C31.0245 7.51001 30.6496 6.75726 30.2747 6.0045C29.8061 5.15766 29.3375 4.26376 28.5878 3.41692C27.0882 1.53503 24.9327 0.5 22.6365 0.5C20.2935 0.5 18.1848 1.53504 16.6384 3.32282C15.9355 4.16967 15.42 5.06356 14.9514 5.91041C14.5765 6.66316 14.2016 7.41592 13.8268 8.12162L13.6862 8.4039C10.0779 15.461 6.5634 22.6121 3.33003 29.6692L3.28317 29.7633C2.95515 30.516 2.58027 31.3158 2.20538 32.1627C1.97108 32.6802 1.73678 33.2447 1.50248 33.8564C0.893295 35.5971 0.705853 37.2437 0.940155 38.9374C1.45562 42.466 3.79864 45.4299 7.032 46.7472C8.25037 47.2648 9.5156 47.5 10.8277 47.5C11.2026 47.5 11.6712 47.4529 12.0461 47.4059C13.5925 47.2177 15.1857 46.7002 16.7321 45.8063C18.6534 44.7242 20.4809 43.1717 22.5428 40.9134C24.6046 43.1717 26.479 44.7242 28.3535 45.8063C29.8999 46.7002 31.4931 47.2177 33.0395 47.4059C33.4144 47.4529 33.883 47.5 34.2579 47.5C35.57 47.5 36.882 47.2648 38.0536 46.7472C41.3338 45.4299 43.6299 42.4189 44.1454 38.9374C44.5203 37.2908 44.3328 35.6441 43.7237 33.9034ZM22.5896 36.3498C20.0592 33.1507 18.4191 30.1396 17.8567 27.5991C17.6224 26.517 17.5756 25.5761 17.7162 24.7292C17.8099 23.9765 18.091 23.3178 18.4659 22.7533C19.3563 21.483 20.8558 20.6832 22.5896 20.6832C24.3235 20.6832 25.8699 21.4359 26.7134 22.7533C27.0882 23.3178 27.3694 23.9765 27.4631 24.7292C27.6037 25.5761 27.5568 26.5641 27.3225 27.5991C26.7602 30.0926 25.1201 33.1036 22.5896 36.3498ZM41.2869 38.5611C40.9589 41.0075 39.3188 43.1246 37.0226 44.0656C35.898 44.536 34.6796 44.6772 33.4612 44.536C32.2897 44.3949 31.1182 44.0185 29.8999 43.3128C28.2129 42.3719 26.5259 40.9134 24.5578 38.7492C27.6506 34.9384 29.525 31.457 30.2279 28.3519C30.5559 26.8934 30.6028 25.5761 30.4622 24.3529C30.2747 23.1767 29.853 22.0946 29.197 21.1537C27.7443 19.0365 25.3075 17.8133 22.5896 17.8133C19.8717 17.8133 17.435 19.0836 15.9823 21.1537C15.3263 22.0946 14.9045 23.1767 14.7171 24.3529C14.5297 25.5761 14.5765 26.9404 14.9514 28.3519C15.6543 31.457 17.5756 34.9855 20.6215 38.7963C18.7002 40.9605 16.9664 42.4189 15.2794 43.3599C14.0611 44.0656 12.8895 44.4419 11.718 44.5831C10.4528 44.7242 9.23444 44.536 8.15665 44.1126C5.86049 43.1717 4.22038 41.0546 3.89236 38.6081C3.75178 37.4319 3.8455 36.2558 4.3141 34.9384C4.45468 34.468 4.68898 33.9975 4.92329 33.4329C5.25131 32.6802 5.62619 31.8804 6.00107 31.0806L6.04793 30.9865C9.2813 23.9765 12.749 16.8253 16.3572 9.86236L16.4978 9.58008C16.8727 8.87437 17.2476 8.12162 17.6224 7.41592C17.9973 6.66316 18.4191 5.95746 18.9345 5.34585C19.9186 4.21672 21.2307 3.6051 22.6834 3.6051C24.136 3.6051 25.4481 4.21672 26.4322 5.34585C26.9477 5.95746 27.3694 6.66316 27.7443 7.41592C28.1192 8.12162 28.494 8.87437 28.8689 9.58008L29.0095 9.86236C32.5709 16.8724 36.0386 24.0235 39.2719 31.0335V31.0806C39.6468 31.8333 39.9748 32.6802 40.3497 33.4329C40.584 33.9975 40.8183 34.468 40.9589 34.9384C41.3338 36.1617 41.4744 37.3378 41.2869 38.5611Z" fill="#B5B5B5" />
                    </g>
                    <defs>
                        <clipPath id="clip0_146_250">
                            <rect width="150" height="47" fill="white" transform="translate(0.846436 0.5)" />
                        </clipPath>
                    </defs>
                </svg>