<!-- <svg width="51" height="68" viewBox="0 0 51 68" fill="none" xmlns="http://www.w3.org/2000/svg">
                    <path d="M49.2536 23.2C45.0879 26 42.5149 30.8 42.5149 36.1333C42.5149 42.1333 45.823 47.6 50.8464 49.8667C49.8662 53.3333 48.3959 56.5333 46.5581 59.4667C43.8626 63.6 41.0447 67.8667 36.8789 67.8667C32.7132 67.8667 31.488 65.2 26.5871 65.2C21.8088 65.2 20.0935 68 16.1728 68C12.2521 68 9.55666 64.1333 6.49363 59.3333C2.45043 52.6667 0.122521 44.9333 0 36.8C0 23.6 7.84137 16.5333 15.6827 16.5333C19.8485 16.5333 23.2791 19.4667 25.852 19.4667C28.3024 19.4667 32.2231 16.4 36.8789 16.4C41.7798 16.2667 46.4356 18.8 49.2536 23.2ZM34.6735 10.8C36.7564 8.13333 37.8591 4.8 37.9816 1.33333C37.9816 0.933333 37.9816 0.4 37.8591 0C34.306 0.4 30.9979 2.26667 28.67 5.2C26.5871 7.73333 25.3619 10.9333 25.2394 14.4C25.2394 14.8 25.2394 15.2 25.3619 15.6C25.607 15.6 25.9745 15.7333 26.2196 15.7333C29.5276 15.4667 32.5907 13.6 34.6735 10.8Z" fill="#B5B5B5" />
                </svg> -->
                <svg width="43" height="53" viewBox="0 0 43 53" fill="none" xmlns="http://www.w3.org/2000/svg">
<path d="M41.653 18.0824C38.1301 20.2647 35.9542 24.0059 35.9542 28.1627C35.9542 32.8392 38.7518 37.1 43 38.8667C42.1711 41.5686 40.9277 44.0627 39.3735 46.349C37.094 49.5706 34.7108 52.8961 31.188 52.8961C27.6651 52.8961 26.6289 50.8176 22.4843 50.8176C18.4434 50.8176 16.9928 53 13.6771 53C10.3614 53 8.08193 49.9863 5.49157 46.2451C2.07229 41.049 0.103614 35.0216 0 28.6824C0 18.3941 6.63133 12.8863 13.2627 12.8863C16.7855 12.8863 19.6867 15.1725 21.8627 15.1725C23.9349 15.1725 27.2506 12.7824 31.188 12.7824C35.3325 12.6784 39.2699 14.6529 41.653 18.0824ZM29.3229 8.41765C31.0843 6.33922 32.0169 3.74118 32.1205 1.03922C32.1205 0.727451 32.1205 0.311765 32.0169 0C29.012 0.311765 26.2145 1.76667 24.2458 4.05294C22.4843 6.02745 21.4482 8.52157 21.3446 11.2235C21.3446 11.5353 21.3446 11.8471 21.4482 12.1588C21.6554 12.1588 21.9663 12.2627 22.1735 12.2627C24.9711 12.0549 27.5614 10.6 29.3229 8.41765Z" fill="#B5B5B5"/>
</svg>
