<svg width="54" height="39" viewBox="0 0 54 39" fill="none" xmlns="http://www.w3.org/2000/svg">
<path d="M4.5 0.307373H23.25C24.2446 0.307373 25.1984 0.711241 25.9016 1.43013C26.6049 2.14902 27 3.12404 27 4.14071C27 5.15737 26.6049 6.13239 25.9016 6.85128C25.1984 7.57017 24.2446 7.97404 23.25 7.97404H4.5C3.50544 7.97404 2.55161 7.57017 1.84835 6.85128C1.14509 6.13239 0.75 5.15737 0.75 4.14071C0.75 3.12404 1.14509 2.14902 1.84835 1.43013C2.55161 0.711241 3.50544 0.307373 4.5 0.307373ZM30.75 30.974H49.5C50.4946 30.974 51.4484 31.3779 52.1516 32.0968C52.8549 32.8157 53.25 33.7907 53.25 34.8074C53.25 35.824 52.8549 36.7991 52.1516 37.5179C51.4484 38.2368 50.4946 38.6407 49.5 38.6407H30.75C29.7554 38.6407 28.8016 38.2368 28.0984 37.5179C27.3951 36.7991 27 35.824 27 34.8074C27 33.7907 27.3951 32.8157 28.0984 32.0968C28.8016 31.3779 29.7554 30.974 30.75 30.974ZM4.5 15.6407H49.5C50.4946 15.6407 51.4484 16.0446 52.1516 16.7635C52.8549 17.4824 53.25 18.4574 53.25 19.474C53.25 20.4907 52.8549 21.4657 52.1516 22.1846C51.4484 22.9035 50.4946 23.3074 49.5 23.3074H4.5C3.50544 23.3074 2.55161 22.9035 1.84835 22.1846C1.14509 21.4657 0.75 20.4907 0.75 19.474C0.75 18.4574 1.14509 17.4824 1.84835 16.7635C2.55161 16.0446 3.50544 15.6407 4.5 15.6407Z" fill="black"/>
</svg>
