<svg width="149" height="46" viewBox="0 0 149 46" fill="none" xmlns="http://www.w3.org/2000/svg">
                    <path d="M36.235 20.4829C29.0928 16.2366 17.312 15.8462 10.4939 17.9178C9.39903 18.2502 8.24126 17.6315 7.9095 16.5354C7.57774 15.4388 8.19517 14.2805 9.29081 13.9473C17.1175 11.5687 30.1281 12.0283 38.3503 16.9145C39.3353 17.4996 39.6584 18.7728 39.0745 19.7574C38.4903 20.7431 37.2174 21.0681 36.235 20.4829ZM36.0011 26.772C35.5002 27.5861 34.4371 27.8412 33.6251 27.3416C27.6707 23.6774 18.5909 22.616 11.5464 24.7566C10.6329 25.033 9.66795 24.5174 9.39056 23.6045C9.11521 22.6899 9.63054 21.7257 10.5424 21.4477C18.5899 19.003 28.5938 20.1871 35.4327 24.3946C36.2447 24.8951 36.5003 25.96 36.0011 26.772ZM33.2899 32.8121C32.892 33.4656 32.0416 33.6705 31.3912 33.2722C26.1881 30.0887 19.6391 29.3695 11.9265 31.1333C11.1832 31.3039 10.4426 30.8375 10.273 30.0936C10.1028 29.3496 10.5667 28.6083 11.3117 28.4385C19.7518 26.5068 26.9918 27.3382 32.8319 30.9108C33.483 31.3089 33.6881 32.1605 33.2899 32.8121ZM23.1285 0.818409C10.8918 0.818409 0.971436 10.7492 0.971436 22.9996C0.971436 35.2511 10.8918 45.1816 23.1285 45.1816C35.3658 45.1816 45.2855 35.2511 45.2855 22.9996C45.2855 10.7492 35.3658 0.818409 23.1285 0.818409Z" fill="#B5B5B5" />
                    <path d="M61.2531 21.2958C57.4275 20.3825 56.7462 19.7414 56.7462 18.3949C56.7462 17.1221 57.9431 16.266 59.7227 16.266C61.4478 16.266 63.1581 16.9163 64.9517 18.255C65.0059 18.2955 65.0739 18.3117 65.1409 18.3011C65.2078 18.291 65.2668 18.2545 65.3062 18.1988L67.1742 15.5628C67.2509 15.4545 67.23 15.3045 67.1265 15.2216C64.9922 13.5071 62.5887 12.6735 59.7793 12.6735C55.6487 12.6735 52.7634 15.1549 52.7634 18.7058C52.7634 22.5135 55.2523 23.8616 59.5534 24.9023C63.2142 25.7465 63.832 26.4536 63.832 27.718C63.832 29.1189 62.5826 29.9899 60.572 29.9899C58.3392 29.9899 56.5176 29.2369 54.48 27.4703C54.4295 27.4269 54.3602 27.4068 54.2961 27.4104C54.2289 27.416 54.1673 27.4473 54.1244 27.4989L52.03 29.9943C51.9421 30.0979 51.9532 30.2526 52.0546 30.3421C54.4255 32.4609 57.3409 33.5802 60.4874 33.5802C64.9384 33.5802 67.8147 31.1452 67.8147 27.3768C67.8147 24.1921 65.914 22.4307 61.2531 21.2958Z" fill="#B5B5B5" />
                    <path d="M81.1161 25.5643C81.1161 28.2536 79.4614 30.1302 77.092 30.1302C74.7497 30.1302 72.9828 28.1683 72.9828 25.5643C72.9828 22.9606 74.7497 20.9984 77.092 20.9984C79.4233 20.9984 81.1161 22.9182 81.1161 25.5643ZM77.885 17.5186C75.9556 17.5186 74.3732 18.2794 73.0682 19.8382V18.0836C73.0682 17.9451 72.9561 17.8323 72.8177 17.8323H69.3924C69.254 17.8323 69.1421 17.9451 69.1421 18.0836V37.5791C69.1421 37.7177 69.254 37.8304 69.3924 37.8304H72.8177C72.9561 37.8304 73.0682 37.7177 73.0682 37.5791V31.4255C74.3734 32.8918 75.9562 33.608 77.885 33.608C81.4698 33.608 85.0988 30.8453 85.0988 25.5643C85.0988 20.282 81.4698 17.5186 77.885 17.5186Z" fill="#B5B5B5" />
                    <path d="M94.401 30.1583C91.9454 30.1583 90.0942 28.1831 90.0942 25.5643C90.0942 22.9344 91.8814 21.026 94.3444 21.026C96.8159 21.026 98.6796 23.0011 98.6796 25.6217C98.6796 28.2512 96.8802 30.1583 94.401 30.1583ZM94.401 17.5186C89.7843 17.5186 86.1675 21.0776 86.1675 25.6217C86.1675 30.1164 89.7595 33.638 94.3444 33.638C98.9775 33.638 102.605 30.0911 102.605 25.5643C102.605 21.0527 99.0024 17.5186 94.401 17.5186Z" fill="#B5B5B5" />
                    <path d="M112.465 17.8322H108.695V13.9741C108.695 13.8355 108.583 13.723 108.445 13.723H105.02C104.881 13.723 104.769 13.8355 104.769 13.9741V17.8322H103.122C102.983 17.8322 102.872 17.9451 102.872 18.0836V21.0308C102.872 21.1693 102.983 21.282 103.122 21.282H104.769V28.9083C104.769 31.9902 106.301 33.5527 109.323 33.5527C110.551 33.5527 111.571 33.2987 112.531 32.7533C112.61 32.7096 112.658 32.6254 112.658 32.5358V29.7293C112.658 29.6425 112.613 29.561 112.539 29.5155C112.465 29.4686 112.372 29.4662 112.295 29.5041C111.635 29.8364 110.997 29.9899 110.284 29.9899C109.186 29.9899 108.695 29.4905 108.695 28.3709V21.282H112.465C112.603 21.282 112.714 21.1693 112.714 21.0308V18.0836C112.714 17.9451 112.603 17.8322 112.465 17.8322Z" fill="#B5B5B5" />
                    <path d="M125.598 17.8473V17.3735C125.598 15.9794 126.132 15.3578 127.329 15.3578C128.043 15.3578 128.617 15.4997 129.259 15.7143C129.338 15.7392 129.421 15.7267 129.485 15.6793C129.551 15.6319 129.589 15.5559 129.589 15.4754V12.5856C129.589 12.4751 129.518 12.3774 129.412 12.3451C128.733 12.143 127.865 11.9353 126.564 11.9353C123.4 11.9353 121.728 13.719 121.728 17.0917V17.8174H120.082C119.944 17.8174 119.831 17.93 119.831 18.0685V21.0308C119.831 21.1693 119.944 21.282 120.082 21.282H121.728V33.0452C121.728 33.1837 121.84 33.2963 121.978 33.2963H125.403C125.542 33.2963 125.654 33.1837 125.654 33.0452V21.282H128.853L133.752 33.0421C133.196 34.2777 132.649 34.5235 131.902 34.5235C131.299 34.5235 130.663 34.3431 130.013 33.9871C129.952 33.9534 129.88 33.9479 129.814 33.9683C129.748 33.9916 129.693 34.0401 129.666 34.104L128.505 36.6539C128.449 36.7743 128.496 36.9159 128.612 36.9784C129.824 37.6355 130.919 37.916 132.271 37.916C134.8 37.916 136.198 36.7363 137.431 33.563L143.374 18.1896C143.403 18.1122 143.395 18.0251 143.347 17.9562C143.3 17.8884 143.224 17.8473 143.141 17.8473H139.575C139.468 17.8473 139.373 17.9152 139.338 18.0155L135.685 28.4618L131.683 18.0087C131.647 17.9114 131.553 17.8473 131.449 17.8473H125.598Z" fill="#B5B5B5" />
                    <path d="M117.984 17.8322H114.558C114.42 17.8322 114.308 17.9451 114.308 18.0836V33.0452C114.308 33.1837 114.42 33.2963 114.558 33.2963H117.984C118.122 33.2963 118.235 33.1837 118.235 33.0452V18.0836C118.235 17.9451 118.122 17.8322 117.984 17.8322Z" fill="#B5B5B5" />
                    <path d="M116.289 11.0199C114.932 11.0199 113.83 12.1199 113.83 13.4782C113.83 14.8376 114.932 15.9386 116.289 15.9386C117.645 15.9386 118.745 14.8376 118.745 13.4782C118.745 12.1199 117.645 11.0199 116.289 11.0199Z" fill="#B5B5B5" />
                    <path d="M146.438 19.3205H145.811V20.1218H146.438C146.752 20.1218 146.939 19.9683 146.939 19.7209C146.939 19.4603 146.752 19.3205 146.438 19.3205ZM146.845 20.4635L147.527 21.4193H146.952L146.338 20.5427H145.811V21.4193H145.329V18.8859H146.458C147.046 18.8859 147.432 19.1871 147.432 19.694C147.432 20.1092 147.193 20.363 146.845 20.4635ZM146.311 18.0431C145.076 18.0431 144.141 19.0255 144.141 20.229C144.141 21.4318 145.069 22.4012 146.298 22.4012C147.533 22.4012 148.468 21.4193 148.468 20.2153C148.468 19.0125 147.539 18.0431 146.311 18.0431ZM146.298 22.6427C144.942 22.6427 143.887 21.5526 143.887 20.229C143.887 18.9053 144.956 17.8028 146.311 17.8028C147.666 17.8028 148.721 18.8928 148.721 20.2153C148.721 21.5391 147.654 22.6427 146.298 22.6427Z" fill="#B5B5B5" />
                </svg>
