<svg width="108" height="50" viewBox="0 0 108 50" fill="none" xmlns="http://www.w3.org/2000/svg">
                    <path fill-rule="evenodd" clip-rule="evenodd" d="M107.517 25.8034C107.517 17.5768 103.843 11.0856 96.8204 11.0856C89.7683 11.0856 85.5015 17.5768 85.5015 25.7391C85.5015 35.4117 90.5387 40.2962 97.7686 40.2962C101.295 40.2962 103.961 39.4285 105.976 38.2074V31.7804C103.961 32.873 101.65 33.5478 98.7168 33.5478C95.8426 33.5478 93.2943 32.4553 92.9684 28.6634H107.458C107.458 28.2456 107.517 26.5746 107.517 25.8034ZM92.8795 22.7505C92.8795 19.1193 94.924 17.609 96.7908 17.609C98.5982 17.609 100.524 19.1193 100.524 22.7505H92.8795Z" fill="#B5B5B5" />
                    <path fill-rule="evenodd" clip-rule="evenodd" d="M74.0641 11.0856C71.1603 11.0856 69.2936 12.5638 68.2565 13.5921L67.8713 11.5998H61.3525V49.069L68.7602 47.3658L68.7898 38.2717C69.8566 39.1072 71.427 40.2962 74.0345 40.2962C79.3384 40.2962 84.1682 35.6687 84.1682 25.482C84.1386 16.1629 79.2495 11.0856 74.0641 11.0856ZM72.2863 33.2265C70.5381 33.2265 69.501 32.5517 68.7898 31.7162L68.7602 19.7941C69.5306 18.8622 70.5973 18.2195 72.2863 18.2195C74.9827 18.2195 76.8494 21.4973 76.8494 25.707C76.8494 30.013 75.0123 33.2265 72.2863 33.2265Z" fill="#B5B5B5" />
                    <path fill-rule="evenodd" clip-rule="evenodd" d="M51.1594 9.18965L58.5967 7.45437V0.931L51.1594 2.63415V9.18965Z" fill="#B5B5B5" />
                    <path d="M58.5967 11.6319H51.1594V39.7499H58.5967V11.6319Z" fill="#B5B5B5" />
                    <path fill-rule="evenodd" clip-rule="evenodd" d="M43.1888 14.0099L42.7147 11.6319H36.3145V39.7499H43.7221V20.6939C45.4704 18.2195 48.4334 18.6694 49.352 19.0229V11.6319C48.4038 11.2463 44.937 10.5393 43.1888 14.0099Z" fill="#B5B5B5" />
                    <path fill-rule="evenodd" clip-rule="evenodd" d="M28.3733 4.65865L21.1434 6.32966L21.1138 32.0697C21.1138 36.8256 24.4028 40.3283 28.7881 40.3283C31.2179 40.3283 32.9957 39.8463 33.9735 39.2679V32.7445C33.0253 33.1622 28.3437 34.6404 28.3437 29.8845V18.4766H33.9735V11.6319H28.3437L28.3733 4.65865Z" fill="#B5B5B5" />
                    <path fill-rule="evenodd" clip-rule="evenodd" d="M8.34301 19.7941C8.34301 18.5409 9.2912 18.0589 10.8616 18.0589C13.1136 18.0589 15.9581 18.798 18.21 20.1155V12.5638C15.7507 11.5034 13.321 11.0856 10.8616 11.0856C4.84659 11.0856 0.846436 14.4919 0.846436 20.1798C0.846436 29.049 12.1061 27.635 12.1061 31.4591C12.1061 32.9373 10.9209 33.4193 9.26157 33.4193C6.80222 33.4193 3.66136 32.3267 1.17237 30.8485V38.4966C3.92803 39.782 6.71332 40.3283 9.26157 40.3283C15.4248 40.3283 19.662 37.0184 19.662 31.2663C19.6323 21.6901 8.34301 23.3932 8.34301 19.7941Z" fill="#B5B5B5" />
                </svg>