<svg width="182" height="20" viewBox="0 0 182 20" fill="none" xmlns="http://www.w3.org/2000/svg">
    <path d="M0 0.554286C0.235076 1.46352 0.704544 2.29196 1.35963 2.95352C2.01471 3.61508 2.8315 4.08564 3.72515 4.31629H9.5417L9.83971 4.43571V19.4077H13.4691V4.45743L13.799 4.338H19.6209C20.5116 4.10115 21.3252 3.62851 21.9793 2.96791C22.6334 2.3073 23.1049 1.48217 23.346 0.576V0.538H0V0.554286ZM126.98 0.532571H123.361V19.4511H139.932C140.718 19.1411 141.416 18.6396 141.967 17.9904C142.518 17.3412 142.905 16.5641 143.094 15.7271H126.969L126.98 0.532571ZM99.1315 4.25657C101.058 3.71371 102.676 2.18286 103.064 0.521714L82.7887 0.554286V11.71H99.3763V15.6349H86.3595C85.3672 15.8973 84.4408 16.3717 83.6417 17.0268C82.8426 17.6819 82.1891 18.5027 81.7244 19.4349H102.952V7.99686H86.3702V4.25657H99.1315ZM160.953 19.4403H164.55V11.8294H177.631V19.4403H181.223V8.02943L160.953 8.00771V19.4403ZM45.4202 4.3H59.2564C60.1628 4.07756 60.992 3.6056 61.6536 2.93553C62.3151 2.26547 62.7837 1.42302 63.0082 0.5L41.6684 0.5C41.8951 1.42195 42.3644 2.26321 43.0256 2.93293C43.6868 3.60264 44.5148 4.07535 45.4202 4.3ZM45.4202 11.7751H59.2564C60.1623 11.5516 60.9909 11.0793 61.6523 10.4094C62.3137 9.73948 62.7826 8.89763 63.0082 7.97514H41.6684C41.8962 8.89657 42.3658 9.73724 43.0268 10.4068C43.6879 11.0763 44.5153 11.5494 45.4202 11.7751ZM45.4202 19.4511H59.2564C60.1623 19.2276 60.9909 18.7553 61.6523 18.0854C62.3137 17.4155 62.7826 16.5736 63.0082 15.6511H41.6684C41.8956 16.5728 42.3651 17.4138 43.0262 18.0834C43.6873 18.753 44.5151 19.2259 45.4202 19.4511ZM164.151 4.31086H177.988C178.895 4.08874 179.725 3.61698 180.387 2.94694C181.05 2.27691 181.519 1.43429 181.745 0.510857H160.399C160.625 1.43334 161.094 2.2752 161.755 2.94508C162.417 3.61497 163.245 4.08731 164.151 4.31086Z" fill="#B5B5B5" />
</svg>