<svg width="10" height="10" viewBox="0 0 32 32" fill="none" xmlns="http://www.w3.org/2000/svg">
<path fill-rule="evenodd" clip-rule="evenodd" d="M16 11.9487L26.606 1.34265C27.1688 0.779864 27.9321 0.46369 28.728 0.46369C29.5239 0.46369 30.2872 0.779864 30.85 1.34265C31.4128 1.90544 31.729 2.66875 31.729 3.46465C31.729 4.26056 31.4128 5.02386 30.85 5.58665L20.24 16.1927L30.848 26.7987C31.1265 27.0773 31.3475 27.4081 31.4981 27.7722C31.6488 28.1362 31.7263 28.5264 31.7263 28.9204C31.7262 29.3144 31.6485 29.7045 31.4976 30.0685C31.3467 30.4324 31.1257 30.7631 30.847 31.0417C30.5683 31.3202 30.2375 31.5411 29.8735 31.6918C29.5095 31.8425 29.1193 31.92 28.7253 31.9199C28.3313 31.9198 27.9412 31.8421 27.5772 31.6913C27.2132 31.5404 26.8825 31.3193 26.604 31.0407L16 20.4347L5.394 31.0407C5.11739 31.3273 4.78647 31.556 4.42053 31.7134C4.05459 31.8708 3.66097 31.9537 3.26264 31.9574C2.8643 31.961 2.46923 31.8853 2.10047 31.7347C1.73172 31.584 1.39666 31.3614 1.11485 31.0798C0.833037 30.7983 0.61012 30.4634 0.459104 30.0948C0.308087 29.7262 0.231995 29.3312 0.235268 28.9329C0.23854 28.5345 0.321111 28.1408 0.478163 27.7748C0.635215 27.4087 0.863603 27.0775 1.15 26.8007L11.76 16.1927L1.152 5.58465C0.865603 5.30777 0.637216 4.97663 0.480164 4.61055C0.323112 4.24446 0.24054 3.85077 0.237268 3.45243C0.233995 3.05409 0.310087 2.65909 0.461104 2.29047C0.61212 1.92186 0.835036 1.58701 1.11685 1.30546C1.39866 1.02392 1.73372 0.801317 2.10247 0.650648C2.47123 0.499979 2.8663 0.42426 3.26464 0.427908C3.66297 0.431556 4.05659 0.514499 4.42253 0.671896C4.78847 0.829293 5.11939 1.05799 5.396 1.34465L16 11.9487Z" fill="black"/>
</svg>
